# xmcd
#
# Track frame offsets:
#	151
#	7865
#	20411
#	27620
#	35168
#	41467
#	51869
#	59481
#	71674
#	78291
#	84439
#	95067
#	102762
#	111467
#	122104
#	131424
#	138776
#	147095
#	154347
#	160068
#	167507
#	175797
#	184618
#	194703
#	203394
#	213840
#	222640
#	233019
#	242435
#	249820
#
# Disc length: 3427 seconds
#
# Revision: 2
# Processed by: cddbd v1.5.2PL0 Copyright (c) Steve Scherf et al.
# Submitted via: audiograbber 1.83.01
#
DISCID=980d611e
DTITLE=Various Artist - That Good Ol' Bluegrass (Rural Rhythm)
DYEAR=1945
DGENRE=Bluegrass
TTITLE0=Red Smiley - Little Darlin' Pal of Mine
TTITLE1=Earl Taylor and Jim McCall - Ain't Nobody Gonna Miss Me
TTITLE2=Don Reno and Bill Harrell - Red Rocking Chair
TTITLE3=Jim Greer - Sparkling Brown Eyes
TTITLE4=Mac Martin - Fireball
TTITLE5=Two Dollar Bill - Vassar Clements and Bobby Atkins
TTITLE6=The Frosty Mountain Boys - Little Maggie
TTITLE7=Earl Taylor and Jim McCall - Ghost Train
TTITLE8=Jim Greer - Jesse James
TTITLE9=Red Smiley - Salt Creek
TTITLE10=Little Pal - Don Reno and Bill Harrell
TTITLE11=Rusty York - Lonesome Valley
TTITLE12=Frosty Mountain Boys - Cripple Creek
TTITLE13=Red Smiley - Banks of the Ohio
TTITLE14=Mac Martin - East Tennessee Blues
TTITLE15=Jim Greer - John Hardy
TTITLE16=Roy Ross - Someday We'll Meet Again Sweetheart
TTITLE17=Blue Ridge Mountaineers - Down the Road
TTITLE18=Hylo Brown - I'm Coming Back But I Don't Know When
TTITLE19=Don Reno and Jim Harrell - Dill Pickle Rag
TTITLE20=Red Smiley - Oh Mona
TTITLE21=Jim Greer - Jimmy Brown the Newsboy
TTITLE22=J.E. Mainer - Pallet on the Floor
TTITLE23=Frosty Mountain Boys - Lost to a Stranger
TTITLE24=Roy Ross - Blue Ridge Breakdown
TTITLE25=Red Smiley - Take This Hammer
TTITLE26=Ernie Mack - Ruby
TTITLE27=Earl Taylor and Jim McCall - Wreck of the Old 97
TTITLE28=Jim Greer - Lay Down My Old Guitar
TTITLE29=Frosty Mountain Boys - Rollin' in My Sweet Baby's Arms
EXTD=
EXTT0=
EXTT1=
EXTT2=
EXTT3=
EXTT4=
EXTT5=
EXTT6=
EXTT7=
EXTT8=
EXTT9=
EXTT10=
EXTT11=
EXTT12=
EXTT13=
EXTT14=
EXTT15=
EXTT16=
EXTT17=
EXTT18=
EXTT19=
EXTT20=
EXTT21=
EXTT22=
EXTT23=
EXTT24=
EXTT25=
EXTT26=
EXTT27=
EXTT28=
EXTT29=
PLAYORDER=
